<?xml version="1.0" encoding="UTF-8"?>
<svg xmlns="http://www.w3.org/2000/svg" width="32" height="32" viewBox="0 0 42 42" fill="none">
    <path
        d="M2.131 5.027C1.074 4.963 0 5.774 0 6.941V12.545V32.275C0 34.899 2.174 37.033 4.81 37.033H37.19C39.827 37.033 42 34.899 42 32.275V6.994C42 5.421 40.052 4.505 38.826 5.482L33 10.125V10.121L22.732 18.307L22.719 18.314C21.683 19.131 20.211 19.126 19.182 18.299L3.152 5.41L3.141 5.402C2.832 5.167 2.483 5.049 2.131 5.027ZM2 7.051L17.928 19.857C18.456 20.282 19.058 20.564 19.684 20.734L18.016 22.064C16.988 22.884 15.497 22.882 14.469 22.059L2 12.064V7.051ZM40 7.104V32.275C40 33.802 38.76 35.033 37.189 35.033H33V12.682L40 7.104Z"
        fill="white" />
</svg> 